<?xml version="1.0" encoding="UTF-8" standalone="no"?>
<svg width="30px" height="18px" viewBox="0 0 30 18" version="1.1" xmlns="http://www.w3.org/2000/svg" xmlns:xlink="http://www.w3.org/1999/xlink">
    <!-- Generator: Sketch 41.1 (35376) - http://www.bohemiancoding.com/sketch -->
    <title></title>
    <desc>Created with Sketch.</desc>
    <defs></defs>
    <g id="Page-1" stroke="none" stroke-width="1" fill="none" fill-rule="evenodd">
        <path d="M14.5226777,11.7954757 C14.5567685,8.38639644 11.7613235,5.65913302 8.38633502,5.59095144 C6.579523,5.55686064 5.21589129,6.2386765 4.02271355,7.43185424 C4.02271355,7.02276473 3.95453196,6.51140284 3.95453196,6.06822253 C4.02271355,2.9318696 6.95452172,1.15914838 10.1249654,1.19323917 L9.23860484,0.306878557 C3.95453196,0.306878557 0.511361891,4.26141052 0.443180306,9.17048468 C0.37499872,14.0795588 3.37498848,17.8977276 8.38633502,18 C11.7613235,18.0681816 14.4544961,15.2386458 14.5226777,11.7954757 Z M29.5567173,11.7954757 C29.6248989,8.38639644 26.7953631,5.65913302 23.4203746,5.59095144 C21.6135626,5.55686064 20.2158401,6.2386765 19.0567532,7.43185424 C18.9885716,7.02276473 18.9544808,6.51140284 18.9544808,6.06822253 C18.9885716,2.9318696 21.9885613,1.15914838 25.1590051,1.19323917 L24.2726444,0.306878557 C18.9544808,0.306878557 15.5454015,4.26141052 15.4431291,9.17048468 C15.3408567,14.0795588 18.4090281,17.8977276 23.4203746,18 C26.7953631,18.0681816 29.4885357,15.2386458 29.5567173,11.7954757 Z" id="" fill="#F7ACBB"></path>
    </g>
</svg>